<mxfile host="app.diagrams.net" agent="Mozilla/5.0 (Macintosh; Intel Mac OS X 10_15_7) AppleWebKit/605.1.15 (KHTML, like Gecko) Version/16.1 Safari/605.1.15" version="24.7.10">
  <diagram name="Page-1" id="iAXYxGSycUud2mYwCvFu">
    <mxGraphModel dx="1804" dy="572" grid="1" gridSize="10" guides="1" tooltips="1" connect="1" arrows="1" fold="1" page="1" pageScale="1" pageWidth="850" pageHeight="1100" math="0" shadow="0">
      <root>
        <mxCell id="0" />
        <mxCell id="1" parent="0" />
        <mxCell id="dPEnXZv2GSq9Q8OQ2n2N-1" value="" style="rounded=0;whiteSpace=wrap;html=1;" vertex="1" parent="1">
          <mxGeometry x="70" y="50" width="750" height="180" as="geometry" />
        </mxCell>
        <mxCell id="dPEnXZv2GSq9Q8OQ2n2N-2" value="Home" style="rounded=0;whiteSpace=wrap;html=1;" vertex="1" parent="1">
          <mxGeometry x="100" y="90" width="80" height="40" as="geometry" />
        </mxCell>
        <mxCell id="dPEnXZv2GSq9Q8OQ2n2N-3" value="portfolios" style="rounded=0;whiteSpace=wrap;html=1;" vertex="1" parent="1">
          <mxGeometry x="220" y="150" width="90" height="40" as="geometry" />
        </mxCell>
        <mxCell id="dPEnXZv2GSq9Q8OQ2n2N-4" value="About me" style="rounded=0;whiteSpace=wrap;html=1;" vertex="1" parent="1">
          <mxGeometry x="350" y="150" width="100" height="40" as="geometry" />
        </mxCell>
        <mxCell id="dPEnXZv2GSq9Q8OQ2n2N-5" value="inquiries" style="rounded=0;whiteSpace=wrap;html=1;" vertex="1" parent="1">
          <mxGeometry x="480" y="150" width="90" height="40" as="geometry" />
        </mxCell>
        <mxCell id="dPEnXZv2GSq9Q8OQ2n2N-6" value="" style="rounded=0;whiteSpace=wrap;html=1;" vertex="1" parent="1">
          <mxGeometry x="500" y="70" width="280" height="60" as="geometry" />
        </mxCell>
        <mxCell id="dPEnXZv2GSq9Q8OQ2n2N-8" value="Log in" style="text;html=1;align=center;verticalAlign=middle;whiteSpace=wrap;rounded=0;" vertex="1" parent="1">
          <mxGeometry x="510" y="85" width="60" height="30" as="geometry" />
        </mxCell>
        <mxCell id="dPEnXZv2GSq9Q8OQ2n2N-9" value="Log out" style="text;html=1;align=center;verticalAlign=middle;whiteSpace=wrap;rounded=0;" vertex="1" parent="1">
          <mxGeometry x="580" y="85" width="60" height="30" as="geometry" />
        </mxCell>
        <mxCell id="dPEnXZv2GSq9Q8OQ2n2N-10" value="Register" style="text;html=1;align=center;verticalAlign=middle;whiteSpace=wrap;rounded=0;" vertex="1" parent="1">
          <mxGeometry x="650" y="85" width="60" height="30" as="geometry" />
        </mxCell>
        <mxCell id="dPEnXZv2GSq9Q8OQ2n2N-11" value="" style="rounded=0;whiteSpace=wrap;html=1;" vertex="1" parent="1">
          <mxGeometry x="-20" y="310" width="450" height="330" as="geometry" />
        </mxCell>
        <mxCell id="dPEnXZv2GSq9Q8OQ2n2N-12" value="&amp;nbsp;" style="text;html=1;align=center;verticalAlign=middle;whiteSpace=wrap;rounded=0;" vertex="1" parent="1">
          <mxGeometry x="420" y="255" width="130" height="30" as="geometry" />
        </mxCell>
        <mxCell id="dPEnXZv2GSq9Q8OQ2n2N-13" value="" style="rounded=0;whiteSpace=wrap;html=1;" vertex="1" parent="1">
          <mxGeometry y="370" width="200" height="60" as="geometry" />
        </mxCell>
        <mxCell id="dPEnXZv2GSq9Q8OQ2n2N-14" value="" style="rounded=0;whiteSpace=wrap;html=1;" vertex="1" parent="1">
          <mxGeometry y="445" width="200" height="60" as="geometry" />
        </mxCell>
        <mxCell id="dPEnXZv2GSq9Q8OQ2n2N-15" value="" style="rounded=0;whiteSpace=wrap;html=1;" vertex="1" parent="1">
          <mxGeometry y="530" width="200" height="60" as="geometry" />
        </mxCell>
        <mxCell id="dPEnXZv2GSq9Q8OQ2n2N-18" value="Short description" style="text;html=1;align=center;verticalAlign=middle;whiteSpace=wrap;rounded=0;" vertex="1" parent="1">
          <mxGeometry x="270" y="350" width="110" height="60" as="geometry" />
        </mxCell>
        <mxCell id="dPEnXZv2GSq9Q8OQ2n2N-19" value="Short description" style="text;html=1;align=center;verticalAlign=middle;whiteSpace=wrap;rounded=0;" vertex="1" parent="1">
          <mxGeometry x="270" y="450" width="110" height="60" as="geometry" />
        </mxCell>
        <mxCell id="dPEnXZv2GSq9Q8OQ2n2N-20" value="Short description" style="text;html=1;align=center;verticalAlign=middle;whiteSpace=wrap;rounded=0;" vertex="1" parent="1">
          <mxGeometry x="270" y="530" width="110" height="60" as="geometry" />
        </mxCell>
        <mxCell id="dPEnXZv2GSq9Q8OQ2n2N-21" value="Picture&amp;nbsp;" style="text;html=1;align=center;verticalAlign=middle;whiteSpace=wrap;rounded=0;" vertex="1" parent="1">
          <mxGeometry x="100" y="360" width="60" height="30" as="geometry" />
        </mxCell>
        <mxCell id="dPEnXZv2GSq9Q8OQ2n2N-22" value="" style="rounded=0;whiteSpace=wrap;html=1;" vertex="1" parent="1">
          <mxGeometry x="60" y="310" width="370" height="40" as="geometry" />
        </mxCell>
        <mxCell id="dPEnXZv2GSq9Q8OQ2n2N-23" value="Picture&amp;nbsp;" style="text;html=1;align=center;verticalAlign=middle;whiteSpace=wrap;rounded=0;" vertex="1" parent="1">
          <mxGeometry x="100" y="450" width="60" height="30" as="geometry" />
        </mxCell>
        <mxCell id="dPEnXZv2GSq9Q8OQ2n2N-24" value="Picture&amp;nbsp;" style="text;html=1;align=center;verticalAlign=middle;whiteSpace=wrap;rounded=0;" vertex="1" parent="1">
          <mxGeometry x="100" y="530" width="60" height="30" as="geometry" />
        </mxCell>
        <mxCell id="dPEnXZv2GSq9Q8OQ2n2N-25" value="Category" style="text;html=1;align=center;verticalAlign=middle;whiteSpace=wrap;rounded=0;" vertex="1" parent="1">
          <mxGeometry x="60" y="315" width="60" height="30" as="geometry" />
        </mxCell>
        <mxCell id="dPEnXZv2GSq9Q8OQ2n2N-28" value="Search bar for category" style="text;html=1;align=center;verticalAlign=middle;whiteSpace=wrap;rounded=0;" vertex="1" parent="1">
          <mxGeometry x="130" y="315" width="60" height="30" as="geometry" />
        </mxCell>
        <mxCell id="dPEnXZv2GSq9Q8OQ2n2N-29" value="" style="endArrow=classic;html=1;rounded=0;exitX=1;exitY=0.5;exitDx=0;exitDy=0;" edge="1" parent="1" source="dPEnXZv2GSq9Q8OQ2n2N-28" target="dPEnXZv2GSq9Q8OQ2n2N-30">
          <mxGeometry width="50" height="50" relative="1" as="geometry">
            <mxPoint x="410" y="450" as="sourcePoint" />
            <mxPoint x="130" y="290" as="targetPoint" />
          </mxGeometry>
        </mxCell>
        <mxCell id="dPEnXZv2GSq9Q8OQ2n2N-30" value="when user clicks, there should be categories pop out to choose one of them." style="rounded=0;whiteSpace=wrap;html=1;" vertex="1" parent="1">
          <mxGeometry x="40" y="240" width="140" height="60" as="geometry" />
        </mxCell>
        <mxCell id="dPEnXZv2GSq9Q8OQ2n2N-31" value="Pagination" style="rounded=0;whiteSpace=wrap;html=1;" vertex="1" parent="1">
          <mxGeometry x="200" y="600" width="80" height="30" as="geometry" />
        </mxCell>
        <mxCell id="dPEnXZv2GSq9Q8OQ2n2N-32" value="Language" style="rounded=0;whiteSpace=wrap;html=1;" vertex="1" parent="1">
          <mxGeometry x="410" y="70" width="65" height="40" as="geometry" />
        </mxCell>
        <mxCell id="dPEnXZv2GSq9Q8OQ2n2N-33" value="" style="rounded=0;whiteSpace=wrap;html=1;" vertex="1" parent="1">
          <mxGeometry x="520" y="310" width="310" height="320" as="geometry" />
        </mxCell>
        <mxCell id="dPEnXZv2GSq9Q8OQ2n2N-35" value="date" style="rounded=0;whiteSpace=wrap;html=1;" vertex="1" parent="1">
          <mxGeometry x="220" y="315" width="70" height="30" as="geometry" />
        </mxCell>
        <mxCell id="dPEnXZv2GSq9Q8OQ2n2N-36" value="name drop down" style="rounded=0;whiteSpace=wrap;html=1;" vertex="1" parent="1">
          <mxGeometry x="330" y="317.5" width="50" height="27.5" as="geometry" />
        </mxCell>
        <mxCell id="dPEnXZv2GSq9Q8OQ2n2N-37" value="" style="endArrow=classic;html=1;rounded=0;exitX=0.9;exitY=0.033;exitDx=0;exitDy=0;exitPerimeter=0;entryX=0;entryY=0.5;entryDx=0;entryDy=0;" edge="1" parent="1" source="dPEnXZv2GSq9Q8OQ2n2N-35" target="dPEnXZv2GSq9Q8OQ2n2N-38">
          <mxGeometry width="50" height="50" relative="1" as="geometry">
            <mxPoint x="400" y="430" as="sourcePoint" />
            <mxPoint x="450" y="380" as="targetPoint" />
          </mxGeometry>
        </mxCell>
        <mxCell id="dPEnXZv2GSq9Q8OQ2n2N-38" value="default would be all date" style="text;html=1;align=center;verticalAlign=middle;whiteSpace=wrap;rounded=0;" vertex="1" parent="1">
          <mxGeometry x="320" y="255" width="60" height="30" as="geometry" />
        </mxCell>
        <mxCell id="dPEnXZv2GSq9Q8OQ2n2N-40" value="Home" style="rounded=0;whiteSpace=wrap;html=1;" vertex="1" parent="1">
          <mxGeometry x="-10" y="317.5" width="60" height="35" as="geometry" />
        </mxCell>
        <mxCell id="dPEnXZv2GSq9Q8OQ2n2N-41" value="" style="endArrow=classic;html=1;rounded=0;" edge="1" parent="1" source="dPEnXZv2GSq9Q8OQ2n2N-15" target="dPEnXZv2GSq9Q8OQ2n2N-42">
          <mxGeometry width="50" height="50" relative="1" as="geometry">
            <mxPoint x="400" y="640" as="sourcePoint" />
            <mxPoint x="60" y="720" as="targetPoint" />
          </mxGeometry>
        </mxCell>
        <mxCell id="dPEnXZv2GSq9Q8OQ2n2N-42" value="Once user clicks the picture, it should show page for details of portfolio" style="text;html=1;align=center;verticalAlign=middle;whiteSpace=wrap;rounded=0;" vertex="1" parent="1">
          <mxGeometry x="-30" y="660" width="180" height="40" as="geometry" />
        </mxCell>
        <mxCell id="dPEnXZv2GSq9Q8OQ2n2N-43" value="" style="rounded=0;whiteSpace=wrap;html=1;" vertex="1" parent="1">
          <mxGeometry x="-30" y="710" width="430" height="380" as="geometry" />
        </mxCell>
        <mxCell id="dPEnXZv2GSq9Q8OQ2n2N-44" value="Portfolio Name" style="text;html=1;align=center;verticalAlign=middle;whiteSpace=wrap;rounded=0;" vertex="1" parent="1">
          <mxGeometry x="80" y="720" width="60" height="30" as="geometry" />
        </mxCell>
        <mxCell id="dPEnXZv2GSq9Q8OQ2n2N-45" value="" style="rounded=0;whiteSpace=wrap;html=1;" vertex="1" parent="1">
          <mxGeometry y="760" width="130" height="80" as="geometry" />
        </mxCell>
        <mxCell id="dPEnXZv2GSq9Q8OQ2n2N-46" value="screenshots with descriptions" style="text;html=1;align=center;verticalAlign=middle;whiteSpace=wrap;rounded=0;" vertex="1" parent="1">
          <mxGeometry x="10" y="770" width="60" height="30" as="geometry" />
        </mxCell>
        <mxCell id="dPEnXZv2GSq9Q8OQ2n2N-47" value="Descriptions.of&lt;div&gt;achievements&lt;/div&gt;" style="text;html=1;align=center;verticalAlign=middle;whiteSpace=wrap;rounded=0;" vertex="1" parent="1">
          <mxGeometry x="185" y="790" width="140" height="30" as="geometry" />
        </mxCell>
        <mxCell id="dPEnXZv2GSq9Q8OQ2n2N-50" value="" style="rounded=0;whiteSpace=wrap;html=1;" vertex="1" parent="1">
          <mxGeometry x="180" y="717.5" width="190" height="35" as="geometry" />
        </mxCell>
        <mxCell id="dPEnXZv2GSq9Q8OQ2n2N-51" value="Portfolio Link" style="text;html=1;align=center;verticalAlign=middle;whiteSpace=wrap;rounded=0;" vertex="1" parent="1">
          <mxGeometry x="190" y="717.5" width="60" height="30" as="geometry" />
        </mxCell>
        <mxCell id="dPEnXZv2GSq9Q8OQ2n2N-52" value="User Inquiries" style="text;html=1;align=center;verticalAlign=middle;whiteSpace=wrap;rounded=0;" vertex="1" parent="1">
          <mxGeometry x="280" y="717.5" width="80" height="30" as="geometry" />
        </mxCell>
        <mxCell id="dPEnXZv2GSq9Q8OQ2n2N-53" value="" style="endArrow=classic;html=1;rounded=0;" edge="1" parent="1" source="dPEnXZv2GSq9Q8OQ2n2N-52" target="dPEnXZv2GSq9Q8OQ2n2N-54">
          <mxGeometry width="50" height="50" relative="1" as="geometry">
            <mxPoint x="400" y="870" as="sourcePoint" />
            <mxPoint x="320" y="680" as="targetPoint" />
          </mxGeometry>
        </mxCell>
        <mxCell id="dPEnXZv2GSq9Q8OQ2n2N-54" value="Needs login for inquiries." style="text;html=1;align=center;verticalAlign=middle;whiteSpace=wrap;rounded=0;" vertex="1" parent="1">
          <mxGeometry x="290" y="665" width="90" height="30" as="geometry" />
        </mxCell>
        <mxCell id="dPEnXZv2GSq9Q8OQ2n2N-55" value="" style="rounded=0;whiteSpace=wrap;html=1;" vertex="1" parent="1">
          <mxGeometry x="590" y="317.5" width="180" height="135" as="geometry" />
        </mxCell>
        <mxCell id="dPEnXZv2GSq9Q8OQ2n2N-56" value="Picture of myself" style="text;html=1;align=center;verticalAlign=middle;whiteSpace=wrap;rounded=0;" vertex="1" parent="1">
          <mxGeometry x="645" y="330" width="60" height="30" as="geometry" />
        </mxCell>
        <mxCell id="dPEnXZv2GSq9Q8OQ2n2N-57" value="LinkedIn profile link" style="text;html=1;align=center;verticalAlign=middle;whiteSpace=wrap;rounded=0;" vertex="1" parent="1">
          <mxGeometry x="560" y="470" width="60" height="30" as="geometry" />
        </mxCell>
        <mxCell id="dPEnXZv2GSq9Q8OQ2n2N-59" value="Github link" style="text;html=1;align=center;verticalAlign=middle;whiteSpace=wrap;rounded=0;" vertex="1" parent="1">
          <mxGeometry x="560" y="505" width="60" height="30" as="geometry" />
        </mxCell>
        <mxCell id="dPEnXZv2GSq9Q8OQ2n2N-60" value="etc" style="text;html=1;align=center;verticalAlign=middle;whiteSpace=wrap;rounded=0;" vertex="1" parent="1">
          <mxGeometry x="560" y="535" width="60" height="30" as="geometry" />
        </mxCell>
        <mxCell id="dPEnXZv2GSq9Q8OQ2n2N-61" value="" style="rounded=0;whiteSpace=wrap;html=1;" vertex="1" parent="1">
          <mxGeometry x="510" y="710" width="360" height="380" as="geometry" />
        </mxCell>
        <mxCell id="dPEnXZv2GSq9Q8OQ2n2N-62" value="User settings" style="text;html=1;align=center;verticalAlign=middle;whiteSpace=wrap;rounded=0;" vertex="1" parent="1">
          <mxGeometry x="710" y="85" width="60" height="30" as="geometry" />
        </mxCell>
        <mxCell id="dPEnXZv2GSq9Q8OQ2n2N-63" value="" style="rounded=0;whiteSpace=wrap;html=1;" vertex="1" parent="1">
          <mxGeometry x="650" y="470" width="130" height="100" as="geometry" />
        </mxCell>
        <mxCell id="dPEnXZv2GSq9Q8OQ2n2N-64" value="maybe description&lt;div&gt;of my self&lt;/div&gt;&lt;div&gt;+&lt;/div&gt;&lt;div&gt;.....&lt;/div&gt;" style="text;html=1;align=center;verticalAlign=middle;whiteSpace=wrap;rounded=0;" vertex="1" parent="1">
          <mxGeometry x="670" y="480" width="90" height="75" as="geometry" />
        </mxCell>
        <mxCell id="dPEnXZv2GSq9Q8OQ2n2N-66" value="Work experience page or sth...&amp;nbsp;" style="rounded=0;whiteSpace=wrap;html=1;" vertex="1" parent="1">
          <mxGeometry x="555" y="580" width="235" height="40" as="geometry" />
        </mxCell>
        <mxCell id="dPEnXZv2GSq9Q8OQ2n2N-69" value="" style="rounded=0;whiteSpace=wrap;html=1;" vertex="1" parent="1">
          <mxGeometry x="630" y="640" width="120" height="60" as="geometry" />
        </mxCell>
        <mxCell id="dPEnXZv2GSq9Q8OQ2n2N-70" value="Inquires page" style="text;html=1;align=center;verticalAlign=middle;whiteSpace=wrap;rounded=0;" vertex="1" parent="1">
          <mxGeometry x="650" y="655" width="60" height="30" as="geometry" />
        </mxCell>
        <mxCell id="dPEnXZv2GSq9Q8OQ2n2N-71" value="" style="rounded=0;whiteSpace=wrap;html=1;" vertex="1" parent="1">
          <mxGeometry x="615" y="240" width="120" height="60" as="geometry" />
        </mxCell>
        <mxCell id="dPEnXZv2GSq9Q8OQ2n2N-72" value="" style="rounded=0;whiteSpace=wrap;html=1;" vertex="1" parent="1">
          <mxGeometry x="185" y="260" width="85" height="30" as="geometry" />
        </mxCell>
        <mxCell id="dPEnXZv2GSq9Q8OQ2n2N-73" value="Portfolio page" style="text;html=1;align=center;verticalAlign=middle;whiteSpace=wrap;rounded=0;" vertex="1" parent="1">
          <mxGeometry x="200" y="260" width="60" height="30" as="geometry" />
        </mxCell>
        <mxCell id="dPEnXZv2GSq9Q8OQ2n2N-76" value="About me page" style="text;html=1;align=center;verticalAlign=middle;whiteSpace=wrap;rounded=0;" vertex="1" parent="1">
          <mxGeometry x="645" y="255" width="60" height="30" as="geometry" />
        </mxCell>
        <mxCell id="dPEnXZv2GSq9Q8OQ2n2N-77" value="Headers" style="rounded=0;whiteSpace=wrap;html=1;" vertex="1" parent="1">
          <mxGeometry x="360" y="10" width="100" height="30" as="geometry" />
        </mxCell>
        <mxCell id="dPEnXZv2GSq9Q8OQ2n2N-78" value="Inquiry from users" style="rounded=0;whiteSpace=wrap;html=1;" vertex="1" parent="1">
          <mxGeometry x="620" y="730" width="235" height="70" as="geometry" />
        </mxCell>
        <mxCell id="dPEnXZv2GSq9Q8OQ2n2N-79" value="pagination" style="rounded=0;whiteSpace=wrap;html=1;" vertex="1" parent="1">
          <mxGeometry x="650" y="1050" width="85" height="30" as="geometry" />
        </mxCell>
        <mxCell id="dPEnXZv2GSq9Q8OQ2n2N-80" value="user name" style="rounded=0;whiteSpace=wrap;html=1;" vertex="1" parent="1">
          <mxGeometry x="520" y="730" width="85" height="70" as="geometry" />
        </mxCell>
        <mxCell id="dPEnXZv2GSq9Q8OQ2n2N-81" value="" style="rounded=0;whiteSpace=wrap;html=1;" vertex="1" parent="1">
          <mxGeometry x="632.5" y="790" width="87.5" height="30" as="geometry" />
        </mxCell>
        <mxCell id="dPEnXZv2GSq9Q8OQ2n2N-82" value="reply" style="text;html=1;align=center;verticalAlign=middle;whiteSpace=wrap;rounded=0;" vertex="1" parent="1">
          <mxGeometry x="632.5" y="790" width="60" height="30" as="geometry" />
        </mxCell>
        <mxCell id="dPEnXZv2GSq9Q8OQ2n2N-83" value="status : [solved, in progress, new]" style="rounded=0;whiteSpace=wrap;html=1;" vertex="1" parent="1">
          <mxGeometry x="735" y="790" width="105" height="30" as="geometry" />
        </mxCell>
      </root>
    </mxGraphModel>
  </diagram>
</mxfile>
